<mxfile host="app.diagrams.net" modified="2023-09-11T10:29:16.283Z" agent="Mozilla/5.0 (Macintosh; Intel Mac OS X 10_15_7) AppleWebKit/537.36 (KHTML, like Gecko) Chrome/116.0.0.0 Safari/537.36" etag="hKzma4nX4ldgacmVYjHw" version="21.7.4" type="github">
  <diagram name="第 1 页" id="wsmsETIN_bqIqS-NAftC">
    <mxGraphModel dx="954" dy="2317" grid="1" gridSize="10" guides="1" tooltips="1" connect="1" arrows="1" fold="1" page="1" pageScale="1" pageWidth="827" pageHeight="1169" math="0" shadow="0">
      <root>
        <mxCell id="0" />
        <mxCell id="1" parent="0" />
        <mxCell id="UvCax-ur50L_EcmgdJkj-61" value="" style="endArrow=none;html=1;rounded=0;" edge="1" parent="1">
          <mxGeometry width="50" height="50" relative="1" as="geometry">
            <mxPoint x="760" y="-540" as="sourcePoint" />
            <mxPoint x="760" y="-1000" as="targetPoint" />
          </mxGeometry>
        </mxCell>
        <mxCell id="UvCax-ur50L_EcmgdJkj-62" value="" style="endArrow=none;html=1;rounded=0;" edge="1" parent="1">
          <mxGeometry width="50" height="50" relative="1" as="geometry">
            <mxPoint x="280" y="-540" as="sourcePoint" />
            <mxPoint x="280" y="-1000" as="targetPoint" />
          </mxGeometry>
        </mxCell>
        <mxCell id="UvCax-ur50L_EcmgdJkj-63" value="Client" style="text;html=1;align=center;verticalAlign=middle;resizable=0;points=[];autosize=1;strokeColor=none;fillColor=none;" vertex="1" parent="1">
          <mxGeometry x="260" y="-1032" width="50" height="30" as="geometry" />
        </mxCell>
        <mxCell id="UvCax-ur50L_EcmgdJkj-64" value="Server" style="text;html=1;align=center;verticalAlign=middle;resizable=0;points=[];autosize=1;strokeColor=none;fillColor=none;" vertex="1" parent="1">
          <mxGeometry x="730" y="-1032" width="60" height="30" as="geometry" />
        </mxCell>
        <mxCell id="UvCax-ur50L_EcmgdJkj-65" value="" style="endArrow=classic;html=1;rounded=0;" edge="1" parent="1">
          <mxGeometry width="50" height="50" relative="1" as="geometry">
            <mxPoint x="280" y="-1000" as="sourcePoint" />
            <mxPoint x="760" y="-960" as="targetPoint" />
          </mxGeometry>
        </mxCell>
        <mxCell id="UvCax-ur50L_EcmgdJkj-71" value="GET HTML" style="edgeLabel;html=1;align=center;verticalAlign=middle;resizable=0;points=[];" vertex="1" connectable="0" parent="UvCax-ur50L_EcmgdJkj-65">
          <mxGeometry x="-0.1259" y="2" relative="1" as="geometry">
            <mxPoint x="35" y="-1" as="offset" />
          </mxGeometry>
        </mxCell>
        <mxCell id="UvCax-ur50L_EcmgdJkj-67" value="" style="endArrow=classic;html=1;rounded=0;" edge="1" parent="1">
          <mxGeometry width="50" height="50" relative="1" as="geometry">
            <mxPoint x="760" y="-930" as="sourcePoint" />
            <mxPoint x="280" y="-890" as="targetPoint" />
          </mxGeometry>
        </mxCell>
        <mxCell id="UvCax-ur50L_EcmgdJkj-68" value="" style="endArrow=classic;html=1;rounded=0;strokeColor=#3399FF;" edge="1" parent="1">
          <mxGeometry width="50" height="50" relative="1" as="geometry">
            <mxPoint x="280" y="-870" as="sourcePoint" />
            <mxPoint x="760" y="-800" as="targetPoint" />
          </mxGeometry>
        </mxCell>
        <mxCell id="UvCax-ur50L_EcmgdJkj-73" value="GET&amp;nbsp; JS" style="edgeLabel;html=1;align=center;verticalAlign=middle;resizable=0;points=[];" vertex="1" connectable="0" parent="UvCax-ur50L_EcmgdJkj-68">
          <mxGeometry x="0.0053" y="-2" relative="1" as="geometry">
            <mxPoint as="offset" />
          </mxGeometry>
        </mxCell>
        <mxCell id="UvCax-ur50L_EcmgdJkj-69" value="" style="endArrow=classic;html=1;rounded=0;" edge="1" parent="1">
          <mxGeometry width="50" height="50" relative="1" as="geometry">
            <mxPoint x="760" y="-870" as="sourcePoint" />
            <mxPoint x="280" y="-830" as="targetPoint" />
          </mxGeometry>
        </mxCell>
        <mxCell id="UvCax-ur50L_EcmgdJkj-70" value="" style="endArrow=classic;html=1;rounded=0;strokeColor=#007FFF;" edge="1" parent="1">
          <mxGeometry width="50" height="50" relative="1" as="geometry">
            <mxPoint x="760" y="-790" as="sourcePoint" />
            <mxPoint x="280" y="-740" as="targetPoint" />
          </mxGeometry>
        </mxCell>
        <mxCell id="UvCax-ur50L_EcmgdJkj-77" value="return&amp;nbsp; js" style="edgeLabel;html=1;align=center;verticalAlign=middle;resizable=0;points=[];" vertex="1" connectable="0" parent="UvCax-ur50L_EcmgdJkj-70">
          <mxGeometry x="0.0429" y="3" relative="1" as="geometry">
            <mxPoint as="offset" />
          </mxGeometry>
        </mxCell>
        <mxCell id="UvCax-ur50L_EcmgdJkj-72" value="retrun first stream" style="text;html=1;align=center;verticalAlign=middle;resizable=0;points=[];autosize=1;strokeColor=none;fillColor=none;" vertex="1" parent="1">
          <mxGeometry x="460" y="-912" width="120" height="30" as="geometry" />
        </mxCell>
        <mxCell id="UvCax-ur50L_EcmgdJkj-74" value="return&amp;nbsp; more&amp;nbsp; stream" style="text;html=1;align=center;verticalAlign=middle;resizable=0;points=[];autosize=1;strokeColor=none;fillColor=none;" vertex="1" parent="1">
          <mxGeometry x="555" y="-862" width="130" height="30" as="geometry" />
        </mxCell>
        <mxCell id="UvCax-ur50L_EcmgdJkj-75" value="返回第一段信息流&lt;br&gt;首屏信息展示" style="text;html=1;align=center;verticalAlign=middle;resizable=0;points=[];autosize=1;strokeColor=none;fillColor=none;" vertex="1" parent="1">
          <mxGeometry x="755" y="-965" width="120" height="40" as="geometry" />
        </mxCell>
        <mxCell id="UvCax-ur50L_EcmgdJkj-76" value="返回其他信息流&lt;br&gt;逐步展示异步数据" style="text;html=1;align=center;verticalAlign=middle;resizable=0;points=[];autosize=1;strokeColor=none;fillColor=none;" vertex="1" parent="1">
          <mxGeometry x="750" y="-905" width="120" height="40" as="geometry" />
        </mxCell>
        <mxCell id="UvCax-ur50L_EcmgdJkj-78" value="FP" style="text;html=1;align=center;verticalAlign=middle;resizable=0;points=[];autosize=1;strokeColor=none;fillColor=none;" vertex="1" parent="1">
          <mxGeometry x="230" y="-902" width="40" height="30" as="geometry" />
        </mxCell>
        <mxCell id="UvCax-ur50L_EcmgdJkj-79" value="LCP" style="text;html=1;align=center;verticalAlign=middle;resizable=0;points=[];autosize=1;strokeColor=none;fillColor=none;" vertex="1" parent="1">
          <mxGeometry x="225" y="-832" width="50" height="30" as="geometry" />
        </mxCell>
        <mxCell id="UvCax-ur50L_EcmgdJkj-80" value="execute&amp;nbsp; js" style="text;html=1;align=center;verticalAlign=middle;resizable=0;points=[];autosize=1;strokeColor=none;fillColor=none;" vertex="1" parent="1">
          <mxGeometry x="205" y="-730" width="80" height="30" as="geometry" />
        </mxCell>
        <mxCell id="UvCax-ur50L_EcmgdJkj-81" value="" style="endArrow=classic;html=1;rounded=0;strokeColor=#007FFF;" edge="1" parent="1">
          <mxGeometry width="50" height="50" relative="1" as="geometry">
            <mxPoint x="290" y="-730" as="sourcePoint" />
            <mxPoint x="290" y="-630" as="targetPoint" />
          </mxGeometry>
        </mxCell>
        <mxCell id="UvCax-ur50L_EcmgdJkj-83" value="TTI" style="text;html=1;align=center;verticalAlign=middle;resizable=0;points=[];autosize=1;strokeColor=none;fillColor=none;" vertex="1" parent="1">
          <mxGeometry x="225" y="-652" width="40" height="30" as="geometry" />
        </mxCell>
      </root>
    </mxGraphModel>
  </diagram>
</mxfile>
